<?xml version="1.0"?>
<svg xmlns="http://www.w3.org/2000/svg" id="Capa_1" enable-background="new 0 0 509.275 509.275" height="512px" viewBox="0 0 509.275 509.275" width="512px"><g><g><path d="m379.637 113.685-70-12.639v211.078l70 .972z" data-original="#000000" class="active-path" data-old_color="#000000" fill="#FFFFFF"/><path d="m279.637 95.63-70-12.639v227.744l70 .972z" data-original="#000000" class="active-path" data-old_color="#000000" fill="#FFFFFF"/><path d="m409.637 119.102v194.411l70 .972v-182.744z" data-original="#000000" class="active-path" data-old_color="#000000" fill="#FFFFFF"/><path d="m119.637 321.28v-11.796l60 .833v-232.743l-60-10.833v-22.466c0-24.413-19.861-44.275-44.274-44.275h-45.726v30h45.725c7.871 0 14.275 6.404 14.275 14.275v277.005c0 31.979 26.016 57.995 57.995 57.995h12.005v34.187c-6.129-2.686-12.891-4.187-20-4.187-27.57 0-50 22.43-50 50s22.43 50 50 50c25.883 0 47.233-19.769 49.749-45h.251v-85h260v34.187c-6.129-2.686-12.891-4.187-20-4.187-27.57 0-50 22.43-50 50s22.43 50 50 50c25.883 0 47.233-19.769 49.749-45h.251v-115h-332.005c-15.436 0-27.995-12.558-27.995-27.995z" data-original="#000000" class="active-path" data-old_color="#000000" fill="#FFFFFF"/></g></g> </svg>
